<svg width="25" height="25" viewBox="0 0 20 20" fill="none" xmlns="http://www.w3.org/2000/svg">
<path fill-rule="evenodd" clip-rule="evenodd" d="M9.99997 1.875C6.82833 1.875 4.15302 4.23671 3.75963 7.38386L2.93553 13.9767C2.77081 15.2944 3.7983 16.4583 5.1263 16.4583H6.26047L6.30409 16.5565C6.95323 18.017 8.40164 18.9583 9.99997 18.9583C11.5983 18.9583 13.0467 18.017 13.6959 16.5565L13.7395 16.4583H14.8736C16.2016 16.4583 17.2291 15.2944 17.0644 13.9767L16.2403 7.38387C15.8469 4.23672 13.1716 1.875 9.99997 1.875ZM13.3476 15.2083C13.3383 15.2081 13.329 15.2081 13.3197 15.2083H6.6802C6.67095 15.2081 6.66167 15.2081 6.65239 15.2083H5.1263C4.55017 15.2083 4.10441 14.7034 4.17587 14.1317L4.99997 7.53891C5.31517 5.01729 7.45873 3.125 9.99997 3.125C12.5412 3.125 14.6848 5.01729 15 7.53891L15.8241 14.1317C15.8955 14.7034 15.4498 15.2083 14.8736 15.2083H13.3476ZM7.67098 16.4583H12.329C11.8171 17.2304 10.9466 17.7083 9.99997 17.7083C9.05333 17.7083 8.1828 17.2304 7.67098 16.4583Z" fill="#696A6E"/>
</svg>
