<svg width="27" height="27" viewBox="0 0 27 27" fill="none" xmlns="http://www.w3.org/2000/svg">
<path fill-rule="evenodd" clip-rule="evenodd" d="M14.8288 7.20117C15.3933 6.48198 15.7891 5.97883 16.1152 5.63335C16.4481 5.28059 16.6241 5.18721 16.7247 5.16248C17.0436 5.08412 17.3807 5.15311 17.6431 5.35041C17.7259 5.41268 17.8512 5.56772 18.0187 6.02289C18.1829 6.46868 18.3492 7.08685 18.5858 7.96998L18.7217 8.47726L18.7217 8.47727L20.0805 13.5484L20.0805 13.5484L20.2164 14.0553C20.453 14.9384 20.6181 15.557 20.6988 16.0251C20.7813 16.5031 20.7503 16.6999 20.7098 16.7953C20.5812 17.0973 20.3237 17.3257 20.0084 17.4172C19.9089 17.4461 19.7097 17.4533 19.245 17.3142C18.7899 17.178 18.1956 16.9402 17.3471 16.5996L14.7283 15.5485L13.0864 9.42088L14.8288 7.20117ZM21.5012 13.7791C21.7231 14.6075 21.9012 15.2741 21.9922 15.8019C22.0839 16.3333 22.1132 16.8493 21.9174 17.3094C21.6345 17.9739 21.068 18.4763 20.3744 18.6777C19.8942 18.8171 19.3854 18.7262 18.8688 18.5716C18.3494 18.4162 17.6994 18.1553 16.8899 17.8304L16.8899 17.8304L16.8582 17.8177L14.1383 16.7259L12.4476 17.179L13.2969 20.3485C13.5783 21.3987 12.955 22.4783 11.9048 22.7597C10.8545 23.0411 9.77497 22.4178 9.49356 21.3676L8.63095 18.1483C6.63348 18.3578 4.7241 17.0908 4.18778 15.0893C3.59368 12.8721 4.90948 10.5931 7.1267 9.99896L11.9862 8.69685L13.7964 6.39077L13.8175 6.36389C14.356 5.67778 14.7885 5.12682 15.1606 4.73252C15.5307 4.34037 15.9259 4.00726 16.4115 3.88792C17.1129 3.71552 17.8546 3.86731 18.4319 4.30136C18.8315 4.60185 19.0641 5.06343 19.2504 5.56944C19.4355 6.07212 19.6147 6.73859 19.8367 7.56708C21.362 7.47312 22.7936 8.46039 23.2044 9.99372C23.6153 11.5271 22.8691 13.0978 21.5012 13.7791ZM21.1495 12.4666C21.8181 12.0076 22.1585 11.1614 21.9366 10.3334C21.7148 9.50544 20.9969 8.94284 20.1884 8.87967L21.1495 12.4666ZM5.45556 14.7496C5.04907 13.2326 5.94935 11.6732 7.4664 11.2667L11.9036 10.0778L13.3757 15.5715L8.93843 16.7604C7.42139 17.1669 5.86205 16.2667 5.45556 14.7496ZM9.91208 17.8584L10.7613 21.0279C10.8551 21.378 11.215 21.5857 11.5651 21.4919C11.9152 21.3981 12.1229 21.0383 12.0291 20.6882L11.1799 17.5187L9.91208 17.8584Z" fill="#109E38"/>
</svg>
