<svg width="20" height="20" viewBox="0 0 12 11" fill="none" xmlns="http://www.w3.org/2000/svg">
<path fill-rule="evenodd" clip-rule="evenodd" d="M6.67339 0.66974C6.54739 0.412826 6.28617 0.25 6.00002 0.25C5.71387 0.25 5.45266 0.412825 5.32665 0.669739L4.00041 3.37383L1.39079 3.758C1.11006 3.79932 0.87669 3.99554 0.787785 4.26501C0.698879 4.53448 0.769661 4.83105 0.970678 5.03132L2.92678 6.98015L2.26863 9.87903C2.20408 10.1634 2.31017 10.4593 2.54064 10.6379C2.77112 10.8165 3.08421 10.8454 3.34342 10.7119L6.00002 9.34363L8.65662 10.7119C8.91583 10.8454 9.22892 10.8165 9.4594 10.6379C9.68988 10.4593 9.79596 10.1634 9.73141 9.87903L9.07326 6.98015L11.0294 5.03132C11.2304 4.83105 11.3012 4.53448 11.2123 4.26501C11.1234 3.99554 10.89 3.79932 10.6093 3.758L7.99964 3.37383L6.67339 0.66974Z" fill="#FFB404"/>
</svg>
