<svg width="26" height="27" viewBox="0 0 26 27" fill="none" xmlns="http://www.w3.org/2000/svg">
<path fill-rule="evenodd" clip-rule="evenodd" d="M8.66541 2.81028C10.1356 3.07758 11.4765 3.59246 13 4.55041C14.5235 3.59246 15.8644 3.07758 17.3346 2.81027C18.8909 2.52731 20.5743 2.52732 22.6946 2.52734H22.75C23.1642 2.52734 23.5 2.86313 23.5 3.27734V16.2773C23.5 16.6916 23.1642 17.0273 22.75 17.0273C20.5631 17.0273 19.0122 17.0298 17.6029 17.2861C16.2263 17.5364 14.9668 18.0342 13.416 19.0681C13.1641 19.236 12.8359 19.236 12.584 19.0681C11.0332 18.0342 9.77374 17.5364 8.39709 17.2861C6.98777 17.0298 5.43691 17.0273 3.25 17.0273C2.83579 17.0273 2.5 16.6916 2.5 16.2773V3.27734C2.5 3.07843 2.57902 2.88767 2.71967 2.74701C2.86032 2.60636 3.05109 2.52734 3.25 2.52734H3.30537H3.30538C5.42569 2.52732 7.10909 2.52731 8.66541 2.81028ZM8.39709 4.28608C9.67359 4.51817 10.8493 4.96309 12.25 5.85082V17.1063C11.0247 16.4273 9.88991 16.0329 8.66541 15.8103C7.28294 15.5589 5.80019 15.5308 4 15.5277V4.02787C5.80174 4.03148 7.15443 4.06014 8.39709 4.28608ZM17.3346 15.8103C16.1101 16.0329 14.9753 16.4273 13.75 17.1063V5.85082C15.1507 4.96309 16.3264 4.51817 17.6029 4.28608C18.8456 4.06014 20.1983 4.03148 22 4.02787V15.5277C20.1998 15.5308 18.7171 15.5589 17.3346 15.8103ZM3.25 19.319C2.83579 19.319 2.5 19.6548 2.5 20.069C2.5 20.4832 2.83579 20.819 3.25 20.819C5.39043 20.819 6.93854 20.9537 8.33391 21.3343C9.72139 21.7127 11.0012 22.3462 12.584 23.4014C12.8359 23.5693 13.1641 23.5693 13.416 23.4014C14.9988 22.3462 16.2786 21.7127 17.6661 21.3343C19.0615 20.9537 20.6096 20.819 22.75 20.819C23.1642 20.819 23.5 20.4832 23.5 20.069C23.5 19.6548 23.1642 19.319 22.75 19.319C20.5571 19.319 18.8552 19.4552 17.2714 19.8871C15.8137 20.2847 14.4928 20.9226 13 21.881C11.5072 20.9226 10.1863 20.2847 8.72859 19.8871C7.1448 19.4552 5.4429 19.319 3.25 19.319Z" fill="#22282F"/>
</svg>
