<svg width="26" height="27" viewBox="0 0 26 27" fill="none" xmlns="http://www.w3.org/2000/svg">
<path fill-rule="evenodd" clip-rule="evenodd" d="M10.1845 2.65625L10.2166 2.65625H15.7833L15.8154 2.65625C16.6282 2.65624 17.2839 2.65624 17.8148 2.69961C18.3614 2.74428 18.8415 2.83864 19.2858 3.06498C19.9914 3.4245 20.565 3.99818 20.9246 4.70379C21.1509 5.148 21.2453 5.62815 21.2899 6.17478C21.3333 6.70569 21.3333 7.3613 21.3333 8.17413V8.20625V22.9062C21.3333 23.1736 21.191 23.4207 20.9597 23.5549C20.7285 23.6891 20.4433 23.6901 20.2112 23.5574L14.2155 20.1313C13.5934 19.7758 13.4224 19.688 13.2577 19.6533C13.0877 19.6175 12.9122 19.6175 12.7422 19.6533C12.5775 19.688 12.4066 19.7758 11.7844 20.1313L5.78873 23.5574C5.5566 23.6901 5.27142 23.6891 5.04018 23.5549C4.80895 23.4207 4.66663 23.1736 4.66663 22.9062V8.20625L4.66663 8.17415C4.66662 7.36131 4.66661 6.70569 4.70999 6.17478C4.75465 5.62815 4.84901 5.148 5.07535 4.70379C5.43488 3.99818 6.00855 3.4245 6.71416 3.06498C7.15838 2.83864 7.63852 2.74428 8.18516 2.69961C8.71607 2.65624 9.37168 2.65624 10.1845 2.65625ZM8.30731 4.19463C7.85343 4.23172 7.59266 4.30085 7.39515 4.40149C6.97178 4.6172 6.62758 4.96141 6.41186 5.38477C6.31122 5.58229 6.24209 5.84305 6.20501 6.29693C6.16721 6.75956 6.16663 7.3538 6.16663 8.20625V21.6139L11.0402 18.829C11.0696 18.8122 11.0985 18.7956 11.1272 18.7792C11.6203 18.4969 12.0078 18.2751 12.433 18.1855C12.8069 18.1067 13.1931 18.1067 13.5669 18.1855C13.9921 18.2751 14.3796 18.4969 14.8728 18.7792C14.9014 18.7956 14.9304 18.8122 14.9597 18.829L19.8333 21.6139V8.20625C19.8333 7.3538 19.8327 6.75956 19.7949 6.29693C19.7578 5.84305 19.6887 5.58229 19.5881 5.38477C19.3723 4.96141 19.0281 4.6172 18.6048 4.40149C18.4073 4.30085 18.1465 4.23172 17.6926 4.19463C17.23 4.15683 16.6357 4.15625 15.7833 4.15625H10.2166C9.36417 4.15625 8.76994 4.15683 8.30731 4.19463Z" fill="#1A1A1A"/>
</svg>
