<svg width="26" height="27" viewBox="0 0 26 27" fill="none" xmlns="http://www.w3.org/2000/svg">
<path fill-rule="evenodd" clip-rule="evenodd" d="M12.9954 1.54346C11.4404 1.54346 10.1798 2.80408 10.1798 4.35914V5.28674C9.95387 5.36898 9.73262 5.46081 9.5165 5.56174L8.86029 4.90554C7.7607 3.80595 5.97791 3.80595 4.87831 4.90554C3.77872 6.00513 3.77872 7.78793 4.87831 8.88752L5.53447 9.54368C5.43351 9.75985 5.34165 9.98116 5.2594 10.2071H4.3318C2.77674 10.2071 1.51611 11.4677 1.51611 13.0228C1.51611 14.5779 2.77674 15.8385 4.3318 15.8385H5.2594C5.34166 16.0644 5.43353 16.2858 5.53451 16.502L4.87836 17.1581L5.22296 17.5027L4.87836 17.1581C3.77877 18.2577 3.77877 20.0405 4.87836 21.1401C5.97796 22.2397 7.76075 22.2397 8.86034 21.1401L9.51657 20.4839C9.73267 20.5848 9.9539 20.6766 10.1798 20.7588V21.6864C10.1798 23.2415 11.4404 24.5021 12.9954 24.5021C14.5505 24.5021 15.8111 23.2415 15.8111 21.6864V20.7588C16.0371 20.6766 16.2584 20.5847 16.4746 20.4838L17.1306 21.1398C18.2302 22.2394 20.013 22.2394 21.1125 21.1398C22.2121 20.0402 22.2121 18.2574 21.1125 17.1578L20.4565 16.5017C20.5574 16.2856 20.6493 16.0644 20.7315 15.8385H21.6591C23.2142 15.8385 24.4748 14.5779 24.4748 13.0228C24.4748 11.4677 23.2142 10.2071 21.6591 10.2071H20.7315C20.6493 9.98124 20.5575 9.76001 20.4565 9.54391L21.1126 8.88785C22.2122 7.78826 22.2122 6.00546 21.1126 4.90587C20.013 3.80627 18.2302 3.80628 17.1306 4.90587L16.4746 5.56185C16.2584 5.46088 16.0371 5.36901 15.8111 5.28674V4.35914C15.8111 2.80408 14.5505 1.54346 12.9954 1.54346ZM11.4793 4.35914C11.4793 3.5218 12.1581 2.843 12.9954 2.843C13.8328 2.843 14.5116 3.5218 14.5116 4.35914V5.75602C14.5116 6.0435 14.7005 6.2968 14.976 6.3788C15.4366 6.51589 15.8773 6.69963 16.2925 6.92464C16.5453 7.06166 16.8582 7.01617 17.0615 6.81281L18.0495 5.82479C18.6416 5.2327 19.6016 5.2327 20.1937 5.82479C20.7858 6.41688 20.7858 7.37684 20.1937 7.96893L19.2056 8.95702C19.0022 9.16037 18.9567 9.47319 19.0937 9.72604C19.3187 10.1412 19.5024 10.5817 19.6394 11.0422C19.7214 11.3178 19.9747 11.5067 20.2622 11.5067H21.6591C22.4964 11.5067 23.1752 12.1855 23.1752 13.0228C23.1752 13.8601 22.4964 14.5389 21.6591 14.5389H20.2622C19.9747 14.5389 19.7214 14.7278 19.6394 15.0034C19.5024 15.4639 19.3187 15.9045 19.0937 16.3196C18.9567 16.5725 19.0022 16.8853 19.2055 17.0886L20.1936 18.0767C20.7857 18.6688 20.7857 19.6288 20.1936 20.2209C19.6015 20.8129 18.6416 20.8129 18.0495 20.2209L17.0614 19.2328C16.8581 19.0295 16.5452 18.984 16.2924 19.121C15.8772 19.346 15.4366 19.5297 14.976 19.6668C14.7005 19.7488 14.5116 20.0021 14.5116 20.2896V21.6864C14.5116 22.5238 13.8328 23.2026 12.9954 23.2026C12.1581 23.2026 11.4793 22.5238 11.4793 21.6864V20.2896C11.4793 20.0021 11.2904 19.7488 11.0149 19.6668C10.5544 19.5297 10.1138 19.346 9.69869 19.1211C9.44585 18.9841 9.13302 19.0296 8.92968 19.2329L7.94142 20.2212C7.34934 20.8133 6.38937 20.8133 5.79728 20.2212C5.20519 19.6291 5.20519 18.6691 5.79728 18.077L6.78547 17.0888C6.98882 16.8855 7.03431 16.5727 6.89729 16.3198C6.67229 15.9046 6.48854 15.464 6.35146 15.0034C6.26946 14.7278 6.01615 14.5389 5.72868 14.5389H4.3318C3.49446 14.5389 2.81566 13.8601 2.81566 13.0228C2.81566 12.1855 3.49446 11.5067 4.3318 11.5067H5.72868C6.01615 11.5067 6.26946 11.3178 6.35146 11.0422C6.48854 10.5816 6.67227 10.141 6.89726 9.72584C7.03427 9.47299 6.98878 9.16016 6.78543 8.9568L5.79723 7.9686C5.20514 7.37651 5.20514 6.41655 5.79723 5.82446C6.38932 5.23237 7.34929 5.23237 7.94138 5.82446L8.92961 6.81269C9.13296 7.01604 9.44579 7.06153 9.69863 6.92453C10.1138 6.69957 10.5543 6.51587 11.0149 6.3788C11.2904 6.2968 11.4793 6.0435 11.4793 5.75602V4.35914ZM10.3964 13.0228C10.3964 11.5874 11.56 10.4237 12.9954 10.4237C14.4309 10.4237 15.5945 11.5874 15.5945 13.0228C15.5945 14.4582 14.4309 15.6219 12.9954 15.6219C11.56 15.6219 10.3964 14.4582 10.3964 13.0228ZM12.9954 9.12415C10.8423 9.12415 9.09681 10.8696 9.09681 13.0228C9.09681 15.176 10.8423 16.9214 12.9954 16.9214C15.1486 16.9214 16.8941 15.176 16.8941 13.0228C16.8941 10.8696 15.1486 9.12415 12.9954 9.12415Z" fill="#1A1A1A"/>
</svg>
