<svg width="26" height="27" viewBox="0 0 26 27" fill="none" xmlns="http://www.w3.org/2000/svg">
<path d="M21.6591 11.9386C21.6591 7.15375 17.7803 3.2749 12.9954 3.2749C8.21063 3.2749 4.33179 7.15375 4.33179 11.9386" stroke="#1A1A1A" stroke-width="1.29955" stroke-linecap="round" stroke-linejoin="round"/>
<path d="M2.16614 16.7456V14.7131C2.16614 13.7191 2.84254 12.8529 3.80674 12.6118L5.6906 12.1408C6.1007 12.0383 6.49796 12.3484 6.49796 12.7712V18.6874C6.49796 19.1102 6.1007 19.4203 5.6906 19.3178L3.80674 18.8468C2.84254 18.6057 2.16614 17.7395 2.16614 16.7456Z" stroke="#1A1A1A" stroke-width="1.29955"/>
<path d="M23.8251 16.7456V14.7131C23.8251 13.7191 23.1487 12.8529 22.1845 12.6118L20.3006 12.1408C19.8905 12.0383 19.4933 12.3484 19.4933 12.7712V18.6874C19.4933 19.1102 19.8905 19.4203 20.3006 19.3178L22.1845 18.8468C23.1487 18.6057 23.8251 17.7395 23.8251 16.7456Z" stroke="#1A1A1A" stroke-width="1.29955"/>
<path d="M21.659 19.5205V20.062C21.659 21.2582 20.6893 22.2279 19.4931 22.2279H15.7028" stroke="#1A1A1A" stroke-width="1.29955"/>
<path d="M14.6198 23.8529H11.3709C10.4737 23.8529 9.74646 23.1256 9.74646 22.2284C9.74646 21.3313 10.4737 20.604 11.3709 20.604H14.6198C15.5169 20.604 16.2442 21.3313 16.2442 22.2284C16.2442 23.1256 15.5169 23.8529 14.6198 23.8529Z" stroke="#1A1A1A" stroke-width="1.29955"/>
</svg>
